# xmcd CD database file
#
# Track frame offsets:
#	150
#	10456
#	31131
#	39657
#	52962
#	72200
#	92473
#	117971
#	135412
#	152274
#	164618
#
# Disc length: 2423 seconds
#
# Revision: 0
# Processed by: cddbd v1.5.2PL0 Copyright (c) Steve Scherf et al.
# Submitted via: CDex 1.70beta2
#
DISCID=8009750b
DTITLE=Hot Antic Jazz Band - "Joséphine Billie and Edith"
DYEAR=2017
DGENRE=Jazz
TTITLE0=Qui?
TTITLE1=My Man
TTITLE2=Where Did You Get Those Eyes
TTITLE3=Then I'll Be Happy
TTITLE4=Sonny Boy
TTITLE5=Cake Walking Babies From Home
TTITLE6=Hummin' To Myself
TTITLE7=J'ai Deux Amours
TTITLE8=The Very Thought Of You
TTITLE9=Ram Pam Pam
TTITLE10=Hymne à l'Amour
EXTD=YEAR: 2017
EXTT0=
EXTT1=
EXTT2=
EXTT3=
EXTT4=
EXTT5=
EXTT6=
EXTT7=
EXTT8=
EXTT9=
EXTT10=
PLAYORDER=
